<?xml version="1.0" encoding="UTF-8" standalone="no"?>
<!DOCTYPE svg PUBLIC "-//W3C//DTD SVG 1.1//EN"
 "http://www.w3.org/Graphics/SVG/1.1/DTD/svg11.dtd">
<!-- Generated by graphviz version 2.44.1 (20200629.0846)
 -->
<!-- Title: dependencies Pages: 1 -->
<svg width="504pt" height="211pt"
 viewBox="0.00 0.00 504.00 211.00" xmlns="http://www.w3.org/2000/svg" xmlns:xlink="http://www.w3.org/1999/xlink">
<g id="graph0" class="graph" transform="scale(1 1) rotate(0) translate(4 207)">
<title>dependencies</title>
<polygon fill="white" stroke="transparent" points="-4,4 -4,-207 500,-207 500,4 -4,4"/>
<text text-anchor="start" x="227.01" y="-42.4" font-family="sans-serif" font-weight="bold" font-size="14.00">Legend</text>
<polygon fill="#ffffb3" stroke="transparent" points="14,-10 14,-30 34,-30 34,-10 14,-10"/>
<text text-anchor="start" x="37.63" y="-15.4" font-family="sans-serif" font-size="14.00"> &#160;Declarations</text>
<polygon fill="#8dd3c7" stroke="transparent" points="127,-10 127,-30 147,-30 147,-10 127,-10"/>
<text text-anchor="start" x="150.73" y="-15.4" font-family="sans-serif" font-size="14.00"> &#160;Module</text>
<polygon fill="#80b1d3" stroke="transparent" points="213,-10 213,-30 233,-30 233,-10 213,-10"/>
<text text-anchor="start" x="236.78" y="-15.4" font-family="sans-serif" font-size="14.00"> &#160;Bootstrap</text>
<polygon fill="#fdb462" stroke="transparent" points="310,-10 310,-30 330,-30 330,-10 310,-10"/>
<text text-anchor="start" x="333.67" y="-15.4" font-family="sans-serif" font-size="14.00"> &#160;Providers</text>
<polygon fill="#fb8072" stroke="transparent" points="406,-10 406,-30 426,-30 426,-10 406,-10"/>
<text text-anchor="start" x="429.73" y="-15.4" font-family="sans-serif" font-size="14.00"> &#160;Exports</text>
<g id="clust1" class="cluster">
<title>cluster_GameModule</title>
<polygon fill="none" stroke="black" stroke-dasharray="1,5" points="94,-70 94,-195 402,-195 402,-70 94,-70"/>
</g>
<g id="clust4" class="cluster">
<title>cluster_GameModule_imports</title>
<polygon fill="none" stroke="black" points="240,-78 240,-130 394,-130 394,-78 240,-78"/>
</g>
<g id="clust2" class="cluster">
<title>cluster_GameModule_declarations</title>
<polygon fill="none" stroke="black" points="102,-78 102,-130 232,-130 232,-78 102,-78"/>
</g>
<!-- GameComponent -->
<g id="node1" class="node">
<title>GameComponent</title>
<polygon fill="#ffffb3" stroke="black" points="224.26,-122 109.74,-122 109.74,-86 224.26,-86 224.26,-122"/>
<text text-anchor="middle" x="167" y="-99.8" font-family="Times,serif" font-size="14.00">GameComponent</text>
</g>
<!-- GameModule -->
<g id="node2" class="node">
<title>GameModule</title>
<polygon fill="#8dd3c7" stroke="black" points="288.48,-187 285.48,-191 264.48,-191 261.48,-187 195.52,-187 195.52,-151 288.48,-151 288.48,-187"/>
<text text-anchor="middle" x="242" y="-164.8" font-family="Times,serif" font-size="14.00">GameModule</text>
</g>
<!-- GameComponent&#45;&gt;GameModule -->
<g id="edge1" class="edge">
<title>GameComponent&#45;&gt;GameModule</title>
<path fill="none" stroke="black" d="M209.95,-122.11C209.95,-122.11 209.95,-140.99 209.95,-140.99"/>
<polygon fill="black" stroke="black" points="206.45,-140.99 209.95,-150.99 213.45,-140.99 206.45,-140.99"/>
</g>
<!-- GameRoutingModule -->
<g id="node3" class="node">
<title>GameRoutingModule</title>
<polygon fill="#8dd3c7" stroke="black" points="386.09,-122 383.09,-126 362.09,-126 359.09,-122 247.91,-122 247.91,-86 386.09,-86 386.09,-122"/>
<text text-anchor="middle" x="317" y="-99.8" font-family="Times,serif" font-size="14.00">GameRoutingModule</text>
</g>
<!-- GameRoutingModule&#45;&gt;GameModule -->
<g id="edge2" class="edge">
<title>GameRoutingModule&#45;&gt;GameModule</title>
<path fill="none" stroke="black" d="M268.22,-122.11C268.22,-122.11 268.22,-140.99 268.22,-140.99"/>
<polygon fill="black" stroke="black" points="264.72,-140.99 268.22,-150.99 271.72,-140.99 264.72,-140.99"/>
</g>
</g>
</svg>
